<svg xmlns="http://www.w3.org/2000/svg" viewBox="0 0 512 512">
  <polygon points="256,26 455.19,141 455.19,371 256,486 56.81,371 56.81,141" fill="#4376FC"/>
  <g transform="translate(136, 136) scale(10)" fill="#ffffff">
    <path d="M8.4,18.2c.4.5.6,1.1.6,1.8,0,1.7-1.3,3-3,3s-3-1.3-3-3,1.3-3,3-3,.8.1,1.2.3l1.4-1.8c-.9-1-1.3-2.4-1.1-3.7l-2-.7c-.5.8-1.4,1.4-2.5,1.4-1.7,0-3-1.3-3-3s1.3-3,3-3,3,1.3,3,3v.2l2,.7c.6-1.2,1.8-2.1,3.2-2.3v-2.2c-1.2-.3-2.2-1.5-2.2-2.9s1.3-3,3-3,3,1.3,3,3-1,2.6-2.2,2.9v2.2c1.4.2,2.6,1.1,3.2,2.3l2-.7v-.2c0-1.7,1.3-3,3-3s3,1.3,3,3-1.3,3-3,3-2-.6-2.5-1.4l-2,.7c.2,1.3-.2,2.7-1.1,3.7l1.4,1.8c.4-.2.8-.3,1.2-.3,1.7,0,3,1.3,3,3s-1.3,3-3,3-3-1.3-3-3,.2-1.3.6-1.8l-1.4-1.8c-1.4.8-3,.8-4.4,0l-1.4,1.8Z"/>
  </g>
</svg>
